<svg width="144" height="144" viewBox="0 0 144 144" fill="none" xmlns="http://www.w3.org/2000/svg">
<path d="M66 126V114H54V102H66V89.4C58.1 88 51.624 84.224 46.572 78.072C41.52 71.92 38.996 64.796 39 56.7C39 47.6 42.226 39.876 48.678 33.528C55.13 27.18 62.904 24.004 72 24C81.1 24 88.876 27.176 95.328 33.528C101.78 39.88 105.004 47.604 105 56.7C105 64.8 102.474 71.926 97.422 78.078C92.37 84.23 85.896 88.004 78 89.4V102H90V114H78V126H66ZM72 78C77.8 78 82.75 75.95 86.85 71.85C90.95 67.75 93 62.8 93 57C93 51.2 90.95 46.25 86.85 42.15C82.75 38.05 77.8 36 72 36C66.2 36 61.25 38.05 57.15 42.15C53.05 46.25 51 51.2 51 57C51 62.8 53.05 67.75 57.15 71.85C61.25 75.95 66.2 78 72 78Z" fill="white"/>
</svg>
