
<svg width="144" height="144" viewBox="0 0 144 144" fill="none" xmlns="http://www.w3.org/2000/svg">
<path d="M120 24V60H108V44.55L84.15 68.25C86.05 71.05 87.5 74.026 88.5 77.178C89.5 80.33 90 83.604 90 87C90 96.2 86.8 104 80.4 110.4C74 116.8 66.2 120 57 120C47.8 120 40 116.8 33.6 110.4C27.2 104 24 96.2 24 87C24 77.8 27.2 70 33.6 63.6C40 57.2 47.8 54 57 54C60.3 54 63.55 54.474 66.75 55.422C69.95 56.37 72.9 57.846 75.6 59.85L99.45 36H84V24H120ZM57 66C51.2 66 46.25 68.05 42.15 72.15C38.05 76.25 36 81.2 36 87C36 92.8 38.05 97.75 42.15 101.85C46.25 105.95 51.2 108 57 108C62.8 108 67.75 105.95 71.85 101.85C75.95 97.75 78 92.8 78 87C78 81.2 75.95 76.25 71.85 72.15C67.75 68.05 62.8 66 57 66Z" fill="white"/>
</svg>
